<svg xmlns="http://www.w3.org/2000/svg" viewBox="0 0 640 400">
  <defs>
    <linearGradient id="bg" x1="0" y1="0" x2="1" y2="1">
      <stop offset="0%" stop-color="#0a0a12"/>
      <stop offset="100%" stop-color="#15102a"/>
    </linearGradient>
  </defs>
  <rect width="640" height="400" fill="url(#bg)"/>
  <!-- Network nodes -->
  <g stroke="#5b21b6" stroke-width="1.2" opacity="0.5">
    <line x1="120" y1="200" x2="260" y2="120"/>
    <line x1="120" y1="200" x2="260" y2="280"/>
    <line x1="260" y1="120" x2="400" y2="160"/>
    <line x1="260" y1="280" x2="400" y2="240"/>
    <line x1="400" y1="160" x2="520" y2="200"/>
    <line x1="400" y1="240" x2="520" y2="200"/>
    <line x1="260" y1="120" x2="260" y2="280"/>
  </g>
  <g>
    <circle cx="120" cy="200" r="14" fill="#1e1830" stroke="#a78bfa" stroke-width="2"/>
    <circle cx="260" cy="120" r="12" fill="#1e1830" stroke="#8b5cf6" stroke-width="2"/>
    <circle cx="260" cy="280" r="12" fill="#1e1830" stroke="#8b5cf6" stroke-width="2"/>
    <circle cx="400" cy="160" r="11" fill="#2a1545" stroke="#c4b5fd" stroke-width="2"/>
    <circle cx="400" cy="240" r="11" fill="#2a1545" stroke="#c4b5fd" stroke-width="2"/>
    <circle cx="520" cy="200" r="16" fill="#7c3aed" opacity="0.85"/>
  </g>
  <!-- Alert bars -->
  <g fill="#a78bfa" opacity="0.7">
    <rect x="80" y="330" width="40" height="20" rx="3"/>
    <rect x="140" y="310" width="40" height="40" rx="3" opacity="0.5"/>
    <rect x="200" y="320" width="40" height="30" rx="3" opacity="0.85"/>
    <rect x="260" y="300" width="40" height="50" rx="3" opacity="0.4"/>
    <rect x="320" y="315" width="40" height="35" rx="3" opacity="0.65"/>
  </g>
  <text x="40" y="48" font-family="Segoe UI, system-ui, sans-serif" font-size="14" fill="#a78bfa" letter-spacing="3" font-weight="600">NIDS · ML · NSL-KDD</text>
  <text x="40" y="370" font-family="Segoe UI, system-ui, sans-serif" font-size="12" fill="#6b677a">Isolation Forest · Random Forest · Fuzzy scoring</text>
</svg>
